# xmcd
#
# Track frame offsets:
#	150
#	17041
#	36307
#	53442
#	68007
#	84610
#	99310
#	117411
#	130488
#	144254
#	157726
#	176443
#	191144
#	202757
#	216749
#	232188
#	249760
#	268935
#
# Disc length: 3834 seconds
#
# Revision: 0
# Processed by: cddbd v1.5.2PL0 Copyright (c) Steve Scherf et al.
# Submitted via: EasyCDDAExtractor 11.5.0.1
#
DISCID=fb0ef812
DTITLE=Various Artist - NCT 080
DYEAR=2005
DGENRE=Country
TTITLE0=Carrie Underwood - Jesus, Take The Wheel
TTITLE1=Keith Urban - Tonight I Wanna Cry
TTITLE2=Lee Ann Womack - Twenty Years And Two Husbands Ago
TTITLE3=SheDaisy - I'm Taking The Wheel
TTITLE4=Andy Griggs - I Never Had A Chance
TTITLE5=Clint Black - Drinkin' Songs and Other Logic
TTITLE6=Tracy Lawrence - If I Don't Make It Back
TTITLE7=Jamie O'Neal - I Love My Life
TTITLE8=Carolina Rain - Let's Get It On
TTITLE9=Jeff Bates - No Shame
TTITLE10=Mark McGuinn - Bring 'Em Back
TTITLE11=Zona Jones - I'll Give It To You
TTITLE12=Peasall Sisters - Home To You
TTITLE13=Jason Aldean - Why
TTITLE14=Shawn King - Find Me
TTITLE15=Tyler Dean - Somebody Who Would Die For You
TTITLE16=Bobby Bare - Are You Sincere
TTITLE17=Kacey Jones - Down To My Christmas Underwear
EXTD=
EXTT0=
EXTT1=
EXTT2=
EXTT3=
EXTT4=
EXTT5=
EXTT6=
EXTT7=
EXTT8=
EXTT9=
EXTT10=
EXTT11=
EXTT12=
EXTT13=
EXTT14=
EXTT15=
EXTT16=
EXTT17=
PLAYORDER=
